<?xml version="1.0" encoding="UTF-8" standalone="no"?>
<!DOCTYPE svg PUBLIC "-//W3C//DTD SVG 20010904//EN"
              "http://www.w3.org/TR/2001/REC-SVG-20010904/DTD/svg10.dtd">

<svg xmlns="http://www.w3.org/2000/svg"
     width="3.38983in" height="3.38983in"
     viewBox="0 0 400 400">
  <path id="Selection"
        fill="white" stroke="white" stroke-width="1"
        d="M 286.00,26.00
           C 290.70,27.58 291.41,30.28 294.46,34.00
             294.46,34.00 304.42,45.00 304.42,45.00
             304.42,45.00 331.04,74.00 331.04,74.00
             336.92,80.15 343.67,85.59 348.00,93.00
             339.78,95.32 331.51,92.19 321.83,95.37
             313.28,98.19 309.75,102.15 303.00,107.25
             287.44,119.01 282.15,122.85 268.00,137.00
             291.18,150.11 290.88,180.72 277.91,201.00
             277.91,201.00 263.30,220.00 263.30,220.00
             258.29,226.50 257.06,229.91 250.58,236.95
             250.58,236.95 239.09,248.00 239.09,248.00
             233.31,254.64 236.54,255.68 229.83,262.98
             225.93,267.22 223.85,267.67 220.09,271.09
             220.09,271.09 206.03,285.82 206.03,285.82
             206.03,285.82 190.43,298.04 190.43,298.04
             179.95,306.78 173.38,317.45 160.00,324.96
             138.80,336.85 119.86,321.12 118.00,299.00
             118.00,299.00 101.55,317.72 101.55,317.72
             96.23,323.68 91.86,325.66 87.86,333.83
             86.32,336.98 84.69,345.31 84.00,349.00
             80.55,346.83 78.67,343.01 75.91,340.00
             70.30,333.90 63.32,328.78 60.00,321.00
             65.37,319.47 70.97,320.72 76.00,317.92
             85.77,312.48 99.92,296.65 107.42,288.00
             107.42,288.00 119.53,274.72 119.53,274.72
             125.14,266.75 123.64,262.79 138.43,245.00
             138.43,245.00 159.02,221.00 159.02,221.00
             160.63,217.00 156.82,211.08 153.00,210.00
             146.87,198.75 153.23,198.00 148.08,191.08
             143.30,184.65 137.88,193.02 136.36,185.94
             135.30,181.03 140.38,173.29 144.04,170.42
             145.84,169.00 149.23,167.10 151.53,168.36
             154.42,169.94 152.42,174.20 152.71,177.00
             152.71,177.00 157.00,188.00 157.00,188.00
             165.68,186.39 165.23,190.91 167.90,197.00
             169.67,201.04 170.51,200.93 172.00,206.00
             173.77,204.73 175.37,203.52 176.91,201.96
             176.91,201.96 180.31,198.00 180.31,198.00
             186.17,189.76 175.78,184.76 174.14,178.96
             173.03,175.03 176.40,170.54 171.39,165.20
             167.05,160.57 160.75,167.91 160.25,159.98
             159.93,154.87 164.91,147.44 169.01,144.70
             170.84,143.48 174.26,141.95 176.17,143.83
             178.11,145.74 176.43,149.31 176.71,152.00
             176.71,152.00 181.00,163.00 181.00,163.00
             189.09,161.50 189.65,165.52 191.71,172.00
             191.71,172.00 195.00,181.00 195.00,181.00
             195.00,181.00 207.00,168.00 207.00,168.00
             205.27,166.28 198.99,158.98 198.43,156.95
             197.03,151.84 200.26,148.39 195.39,143.20
             191.01,138.54 185.79,145.60 184.36,138.94
             183.30,134.03 188.38,126.29 192.04,123.42
             193.84,122.00 197.23,120.10 199.53,121.36
             202.42,122.94 200.42,127.20 200.71,130.00
             200.71,130.00 205.00,141.00 205.00,141.00
             215.53,139.05 212.74,146.54 219.00,155.00
             222.00,149.32 231.78,137.48 236.25,132.00
             236.25,132.00 268.41,90.00 268.41,90.00
             274.88,80.69 284.49,66.86 287.24,56.00
             289.18,48.34 288.03,33.67 286.00,26.00 Z
           M 252.00,211.00
           C 258.14,204.57 261.41,200.22 266.41,193.00
             269.99,187.84 272.33,184.06 274.25,178.00
             277.76,166.98 274.36,152.08 260.00,153.22
             253.40,153.75 243.85,159.99 239.12,164.48
             236.49,166.96 231.17,171.37 230.78,175.00
             230.30,179.46 238.88,190.83 241.28,195.00
             244.76,201.05 246.33,206.46 252.00,211.00 Z
           M 218.00,188.00
           C 215.20,190.18 207.47,197.66 206.99,201.00
             206.60,203.70 210.26,209.53 211.65,212.00
             215.34,218.50 223.14,234.61 228.00,239.00
             228.00,239.00 238.46,225.00 238.46,225.00
             238.46,225.00 233.42,214.00 233.42,214.00
             233.42,214.00 218.00,188.00 218.00,188.00 Z
           M 195.00,214.00
           C 195.00,214.00 183.00,227.00 183.00,227.00
             183.00,227.00 204.00,264.00 204.00,264.00
             207.29,262.42 214.18,256.86 214.49,252.91
             214.74,249.74 210.64,242.87 209.00,240.00
             209.00,240.00 195.00,214.00 195.00,214.00 Z
           M 172.00,239.00
           C 172.00,239.00 151.91,261.00 151.91,261.00
             141.53,272.16 131.30,279.27 132.04,296.00
             133.02,318.40 160.51,308.45 169.00,295.00
             173.79,294.10 175.65,291.35 179.00,288.00
             181.72,285.28 190.77,276.69 190.82,273.00
             190.85,270.61 186.49,265.42 185.07,263.00
             185.07,263.00 172.00,239.00 172.00,239.00 Z" />
</svg>
